<svg width="183" height="57" viewBox="0 0 183 57" fill="none" xmlns="http://www.w3.org/2000/svg">
<g id="Vector" opacity="0.8">
<path d="M32.6477 18.5569C32.6619 16.0711 34.1392 14.5938 36.3409 14.5938C38.571 14.5938 39.8636 16.0285 39.8494 18.4574V31.0001H46.7955V17.0938C46.8097 12.1506 43.7983 8.89779 39.2102 8.89779C35.9432 8.89779 33.642 10.5029 32.6619 13.1876H32.4205V1.90915H25.7017V31.0001H32.6477V18.5569Z" fill="#C11616"/>
<path d="M51.1314 31.0001H58.0774V9.18188H51.1314V31.0001ZM54.6115 6.63926C56.5859 6.63926 58.1768 5.14778 58.1768 3.3154C58.1768 1.48301 56.5859 0.0057373 54.6115 0.0057373C52.6513 0.0057373 51.0462 1.48301 51.0462 3.3154C51.0462 5.14778 52.6513 6.63926 54.6115 6.63926Z" fill="#C11616"/>
<path d="M81.5469 15.8438C81.1776 11.5256 77.6406 8.89779 71.7315 8.89779C65.8224 8.89779 62.0582 11.4688 62.0867 15.8438C62.0582 19.1961 64.2031 21.3552 68.5639 22.1648L72.3707 22.8893C74.1747 23.2444 74.9986 23.8126 75.027 24.7785C74.9986 25.8722 73.777 26.5966 72.0014 26.5966C70.027 26.5966 68.6918 25.7444 68.3935 24.1535L61.5327 24.3239C62.0298 28.6421 65.7372 31.412 71.973 31.412C77.8111 31.412 82.0582 28.5001 82.0866 24.0114C82.0582 20.8296 79.956 18.9404 75.6094 18.1023L71.4048 17.3069C69.5582 16.9376 68.9616 16.2841 68.9759 15.4461C68.9616 14.3381 70.2543 13.6563 71.8594 13.6563C73.6918 13.6563 74.9702 14.6364 75.169 16.0143L81.5469 15.8438Z" fill="#C11616"/>
<path d="M97.8217 9.18188H93.8871V3.9546H86.9411V9.18188H84.0575V14.2955H86.9411V24.9063C86.8984 29.3239 89.7678 31.5398 94.6683 31.3126C96.3445 31.2273 97.5519 30.8864 98.2195 30.6876L97.1683 25.6734C96.87 25.7444 96.174 25.8864 95.6484 25.8864C94.5263 25.8864 93.8871 25.4319 93.8871 24.1393V14.2955H97.8217V9.18188Z" fill="#C11616"/>
<path d="M111.316 31.412C118.177 31.412 122.339 26.8807 122.339 20.162C122.339 13.429 118.177 8.89779 111.316 8.89779C104.455 8.89779 100.293 13.429 100.293 20.162C100.293 26.8807 104.455 31.412 111.316 31.412ZM111.359 26.1705C108.788 26.1705 107.367 23.7273 107.367 20.1194C107.367 16.4972 108.788 14.0398 111.359 14.0398C113.844 14.0398 115.265 16.4972 115.265 20.1194C115.265 23.7273 113.844 26.1705 111.359 26.1705ZM108.915 6.41199H113.646L117.935 0.0057373H111.785L108.915 6.41199Z" fill="#C11616"/>
<path d="M125.897 31.0001H132.843V19.1535C132.843 16.554 134.69 14.8069 137.175 14.8069C137.999 14.8069 139.235 14.9489 139.903 15.1762V9.13926C139.32 8.98301 138.596 8.88358 137.957 8.88358C135.57 8.88358 133.667 10.2756 132.871 13.1591H132.644V9.18188H125.897V31.0001Z" fill="#C11616"/>
<path d="M142.733 31.0001H149.679V9.18188H142.733V31.0001ZM146.213 6.63926C148.188 6.63926 149.778 5.14778 149.778 3.3154C149.778 1.48301 148.188 0.0057373 146.213 0.0057373C144.253 0.0057373 142.648 1.48301 142.648 3.3154C142.648 5.14778 144.253 6.63926 146.213 6.63926Z" fill="#C11616"/>
<path d="M160.251 31.3694C163.29 31.3694 165.393 30.1904 166.586 27.9603H166.756V31.0001H173.29V16.1705C173.29 11.554 169.185 8.89779 163.631 8.89779C157.765 8.89779 154.441 11.8523 153.887 15.8296L160.293 16.0569C160.592 14.6648 161.742 13.8126 163.575 13.8126C165.279 13.8126 166.359 14.6364 166.359 16.0995V16.1705C166.359 17.5057 164.91 17.7898 161.188 18.1165C156.771 18.4859 153.077 20.1194 153.077 24.9489C153.077 29.2671 156.075 31.3694 160.251 31.3694ZM162.396 26.8239C160.79 26.8239 159.654 26.0569 159.654 24.608C159.654 23.2018 160.762 22.3495 162.737 22.0512C164.029 21.8665 165.62 21.5824 166.401 21.1705V23.2444C166.401 25.3751 164.612 26.8239 162.396 26.8239Z" fill="#C11616"/>
<path d="M33.886 50.6901C33.886 51.0021 33.868 51.3321 33.832 51.6801H25.948C26.008 52.6521 26.338 53.4141 26.938 53.9661C27.55 54.5061 28.288 54.7761 29.152 54.7761C29.86 54.7761 30.448 54.6141 30.916 54.2901C31.396 53.9541 31.732 53.5101 31.924 52.9581H33.688C33.424 53.9061 32.896 54.6801 32.104 55.2801C31.312 55.8681 30.328 56.1621 29.152 56.1621C28.216 56.1621 27.376 55.9521 26.632 55.5321C25.9 55.1121 25.324 54.5181 24.904 53.7501C24.484 52.9701 24.274 52.0701 24.274 51.0501C24.274 50.0301 24.478 49.1361 24.886 48.3681C25.294 47.6001 25.864 47.0121 26.596 46.6041C27.34 46.1841 28.192 45.9741 29.152 45.9741C30.088 45.9741 30.916 46.1781 31.636 46.5861C32.356 46.9941 32.908 47.5581 33.292 48.2781C33.688 48.9861 33.886 49.7901 33.886 50.6901ZM32.194 50.3481C32.194 49.7241 32.056 49.1901 31.78 48.7461C31.504 48.2901 31.126 47.9481 30.646 47.7201C30.178 47.4801 29.656 47.3601 29.08 47.3601C28.252 47.3601 27.544 47.6241 26.956 48.1521C26.38 48.6801 26.05 49.4121 25.966 50.3481H32.194Z" fill="#C11616"/>
<path d="M39.5401 56.1621C38.7841 56.1621 38.1061 56.0361 37.5061 55.7841C36.9061 55.5201 36.4321 55.1601 36.0841 54.7041C35.7361 54.2361 35.5441 53.7021 35.5081 53.1021H37.2001C37.2481 53.5941 37.4761 53.9961 37.8841 54.3081C38.3041 54.6201 38.8501 54.7761 39.5221 54.7761C40.1461 54.7761 40.6381 54.6381 40.9981 54.3621C41.3581 54.0861 41.5381 53.7381 41.5381 53.3181C41.5381 52.8861 41.3461 52.5681 40.9621 52.3641C40.5781 52.1481 39.9841 51.9381 39.1801 51.7341C38.4481 51.5421 37.8481 51.3501 37.3801 51.1581C36.9241 50.9541 36.5281 50.6601 36.1921 50.2761C35.8681 49.8801 35.7061 49.3641 35.7061 48.7281C35.7061 48.2241 35.8561 47.7621 36.1561 47.3421C36.4561 46.9221 36.8821 46.5921 37.4341 46.3521C37.9861 46.1001 38.6161 45.9741 39.3241 45.9741C40.4161 45.9741 41.2981 46.2501 41.9701 46.8021C42.6421 47.3541 43.0021 48.1101 43.0501 49.0701H41.4121C41.3761 48.5541 41.1661 48.1401 40.7821 47.8281C40.4101 47.5161 39.9061 47.3601 39.2701 47.3601C38.6821 47.3601 38.2141 47.4861 37.8661 47.7381C37.5181 47.9901 37.3441 48.3201 37.3441 48.7281C37.3441 49.0521 37.4461 49.3221 37.6501 49.5381C37.8661 49.7421 38.1301 49.9101 38.4421 50.0421C38.7661 50.1621 39.2101 50.3001 39.7741 50.4561C40.4821 50.6481 41.0581 50.8401 41.5021 51.0321C41.9461 51.2121 42.3241 51.4881 42.6361 51.8601C42.9601 52.2321 43.1281 52.7181 43.1401 53.3181C43.1401 53.8581 42.9901 54.3441 42.6901 54.7761C42.3901 55.2081 41.9641 55.5501 41.4121 55.8021C40.8721 56.0421 40.2481 56.1621 39.5401 56.1621Z" fill="#C11616"/>
<path d="M47.4504 47.4861V53.3001C47.4504 53.7801 47.5524 54.1221 47.7564 54.3261C47.9604 54.5181 48.3144 54.6141 48.8184 54.6141H50.0244V56.0001H48.5484C47.6364 56.0001 46.9524 55.7901 46.4964 55.3701C46.0404 54.9501 45.8124 54.2601 45.8124 53.3001V47.4861H44.5344V46.1361H45.8124V43.6521H47.4504V46.1361H50.0244V47.4861H47.4504Z" fill="#C11616"/>
<path d="M51.397 51.0321C51.397 50.0241 51.601 49.1421 52.009 48.3861C52.417 47.6181 52.975 47.0241 53.683 46.6041C54.403 46.1841 55.201 45.9741 56.077 45.9741C56.941 45.9741 57.691 46.1601 58.327 46.5321C58.9631 46.9041 59.437 47.3721 59.7491 47.9361V46.1361H61.405V56.0001H59.7491V54.1641C59.425 54.7401 58.939 55.2201 58.291 55.6041C57.655 55.9761 56.911 56.1621 56.059 56.1621C55.183 56.1621 54.391 55.9461 53.683 55.5141C52.975 55.0821 52.417 54.4761 52.009 53.6961C51.601 52.9161 51.397 52.0281 51.397 51.0321ZM59.7491 51.0501C59.7491 50.3061 59.599 49.6581 59.299 49.1061C58.9991 48.5541 58.591 48.1341 58.0751 47.8461C57.571 47.5461 57.0131 47.3961 56.4011 47.3961C55.7891 47.3961 55.2311 47.5401 54.7271 47.8281C54.223 48.1161 53.821 48.5361 53.521 49.0881C53.2211 49.6401 53.071 50.2881 53.071 51.0321C53.071 51.7881 53.2211 52.4481 53.521 53.0121C53.821 53.5641 54.223 53.9901 54.7271 54.2901C55.2311 54.5781 55.7891 54.7221 56.4011 54.7221C57.0131 54.7221 57.571 54.5781 58.0751 54.2901C58.591 53.9901 58.9991 53.5641 59.299 53.0121C59.599 52.4481 59.7491 51.7941 59.7491 51.0501ZM58.4711 43.3461L54.6371 45.3981V44.1741L58.4711 41.9241V43.3461Z" fill="#C11616"/>
<path d="M73.7779 45.9561C74.9779 45.9561 75.9499 46.3221 76.6939 47.0541C77.4379 47.7741 77.8099 48.8181 77.8099 50.1861V56.0001H76.1899V50.4201C76.1899 49.4361 75.9439 48.6861 75.4519 48.1701C74.9599 47.6421 74.2879 47.3781 73.4359 47.3781C72.5719 47.3781 71.8819 47.6481 71.3659 48.1881C70.8619 48.7281 70.6099 49.5141 70.6099 50.5461V56.0001H68.9719V46.1361H70.6099V47.5401C70.9339 47.0361 71.3719 46.6461 71.9239 46.3701C72.4879 46.0941 73.1059 45.9561 73.7779 45.9561Z" fill="#C11616"/>
<path d="M84.7876 56.1621C83.8636 56.1621 83.0236 55.9521 82.2676 55.5321C81.5236 55.1121 80.9356 54.5181 80.5036 53.7501C80.0836 52.9701 79.8736 52.0701 79.8736 51.0501C79.8736 50.0421 80.0896 49.1541 80.5216 48.3861C80.9656 47.6061 81.5656 47.0121 82.3216 46.6041C83.0776 46.1841 83.9236 45.9741 84.8596 45.9741C85.7956 45.9741 86.6416 46.1841 87.3976 46.6041C88.1536 47.0121 88.7476 47.6001 89.1796 48.3681C89.6236 49.1361 89.8456 50.0301 89.8456 51.0501C89.8456 52.0701 89.6176 52.9701 89.1616 53.7501C88.7176 54.5181 88.1116 55.1121 87.3436 55.5321C86.5756 55.9521 85.7236 56.1621 84.7876 56.1621ZM84.7876 54.7221C85.3756 54.7221 85.9276 54.5841 86.4436 54.3081C86.9596 54.0321 87.3736 53.6181 87.6856 53.0661C88.0096 52.5141 88.1716 51.8421 88.1716 51.0501C88.1716 50.2581 88.0156 49.5861 87.7036 49.0341C87.3916 48.4821 86.9836 48.0741 86.4796 47.8101C85.9756 47.5341 85.4296 47.3961 84.8416 47.3961C84.2416 47.3961 83.6896 47.5341 83.1856 47.8101C82.6936 48.0741 82.2976 48.4821 81.9976 49.0341C81.6976 49.5861 81.5476 50.2581 81.5476 51.0501C81.5476 51.8541 81.6916 52.5321 81.9796 53.0841C82.2796 53.6361 82.6756 54.0501 83.1676 54.3261C83.6596 54.5901 84.1996 54.7221 84.7876 54.7221Z" fill="#C11616"/>
<path d="M95.4913 56.1621C94.7353 56.1621 94.0573 56.0361 93.4573 55.7841C92.8573 55.5201 92.3833 55.1601 92.0353 54.7041C91.6873 54.2361 91.4953 53.7021 91.4593 53.1021H93.1513C93.1993 53.5941 93.4273 53.9961 93.8353 54.3081C94.2553 54.6201 94.8013 54.7761 95.4733 54.7761C96.0973 54.7761 96.5893 54.6381 96.9493 54.3621C97.3093 54.0861 97.4893 53.7381 97.4893 53.3181C97.4893 52.8861 97.2973 52.5681 96.9133 52.3641C96.5293 52.1481 95.9353 51.9381 95.1313 51.7341C94.3993 51.5421 93.7993 51.3501 93.3313 51.1581C92.8753 50.9541 92.4793 50.6601 92.1433 50.2761C91.8193 49.8801 91.6573 49.3641 91.6573 48.7281C91.6573 48.2241 91.8073 47.7621 92.1073 47.3421C92.4073 46.9221 92.8333 46.5921 93.3853 46.3521C93.9373 46.1001 94.5673 45.9741 95.2753 45.9741C96.3673 45.9741 97.2493 46.2501 97.9213 46.8021C98.5933 47.3541 98.9533 48.1101 99.0013 49.0701H97.3633C97.3273 48.5541 97.1173 48.1401 96.7333 47.8281C96.3613 47.5161 95.8573 47.3601 95.2213 47.3601C94.6333 47.3601 94.1653 47.4861 93.8173 47.7381C93.4693 47.9901 93.2953 48.3201 93.2953 48.7281C93.2953 49.0521 93.3973 49.3221 93.6013 49.5381C93.8173 49.7421 94.0813 49.9101 94.3933 50.0421C94.7173 50.1621 95.1613 50.3001 95.7253 50.4561C96.4333 50.6481 97.0093 50.8401 97.4533 51.0321C97.8973 51.2121 98.2753 51.4881 98.5873 51.8601C98.9113 52.2321 99.0793 52.7181 99.0913 53.3181C99.0913 53.8581 98.9413 54.3441 98.6413 54.7761C98.3413 55.2081 97.9153 55.5501 97.3633 55.8021C96.8233 56.0421 96.1993 56.1621 95.4913 56.1621Z" fill="#C11616"/>
<path d="M105.59 51.0321C105.59 50.0241 105.794 49.1421 106.202 48.3861C106.61 47.6181 107.168 47.0241 107.876 46.6041C108.596 46.1841 109.4 45.9741 110.288 45.9741C111.056 45.9741 111.77 46.1541 112.43 46.5141C113.09 46.8621 113.594 47.3241 113.942 47.9001V42.6801H115.598V56.0001H113.942V54.1461C113.618 54.7341 113.138 55.2201 112.502 55.6041C111.866 55.9761 111.122 56.1621 110.27 56.1621C109.394 56.1621 108.596 55.9461 107.876 55.5141C107.168 55.0821 106.61 54.4761 106.202 53.6961C105.794 52.9161 105.59 52.0281 105.59 51.0321ZM113.942 51.0501C113.942 50.3061 113.792 49.6581 113.492 49.1061C113.192 48.5541 112.784 48.1341 112.268 47.8461C111.764 47.5461 111.206 47.3961 110.594 47.3961C109.982 47.3961 109.424 47.5401 108.92 47.8281C108.416 48.1161 108.014 48.5361 107.714 49.0881C107.414 49.6401 107.264 50.2881 107.264 51.0321C107.264 51.7881 107.414 52.4481 107.714 53.0121C108.014 53.5641 108.416 53.9901 108.92 54.2901C109.424 54.5781 109.982 54.7221 110.594 54.7221C111.206 54.7221 111.764 54.5781 112.268 54.2901C112.784 53.9901 113.192 53.5641 113.492 53.0121C113.792 52.4481 113.942 51.7941 113.942 51.0501Z" fill="#C11616"/>
<path d="M127.366 50.6901C127.366 51.0021 127.348 51.3321 127.312 51.6801H119.428C119.488 52.6521 119.818 53.4141 120.418 53.9661C121.03 54.5061 121.768 54.7761 122.632 54.7761C123.34 54.7761 123.928 54.6141 124.396 54.2901C124.876 53.9541 125.212 53.5101 125.404 52.9581H127.168C126.904 53.9061 126.376 54.6801 125.584 55.2801C124.792 55.8681 123.808 56.1621 122.632 56.1621C121.696 56.1621 120.856 55.9521 120.112 55.5321C119.38 55.1121 118.804 54.5181 118.384 53.7501C117.964 52.9701 117.754 52.0701 117.754 51.0501C117.754 50.0301 117.958 49.1361 118.366 48.3681C118.774 47.6001 119.344 47.0121 120.076 46.6041C120.82 46.1841 121.672 45.9741 122.632 45.9741C123.568 45.9741 124.396 46.1781 125.116 46.5861C125.836 46.9941 126.388 47.5581 126.772 48.2781C127.168 48.9861 127.366 49.7901 127.366 50.6901ZM125.674 50.3481C125.674 49.7241 125.536 49.1901 125.26 48.7461C124.984 48.2901 124.606 47.9481 124.126 47.7201C123.658 47.4801 123.136 47.3601 122.56 47.3601C121.732 47.3601 121.024 47.6241 120.436 48.1521C119.86 48.6801 119.53 49.4121 119.446 50.3481H125.674Z" fill="#C11616"/>
<path d="M131.527 47.4861V53.3001C131.527 53.7801 131.629 54.1221 131.833 54.3261C132.037 54.5181 132.391 54.6141 132.895 54.6141H134.101V56.0001H132.625C131.713 56.0001 131.029 55.7901 130.573 55.3701C130.117 54.9501 129.889 54.2601 129.889 53.3001V47.4861H128.611V46.1361H129.889V43.6521H131.527V46.1361H134.101V47.4861H131.527Z" fill="#C11616"/>
<path d="M135.473 51.0321C135.473 50.0241 135.677 49.1421 136.085 48.3861C136.493 47.6181 137.051 47.0241 137.759 46.6041C138.479 46.1841 139.277 45.9741 140.153 45.9741C141.017 45.9741 141.767 46.1601 142.403 46.5321C143.039 46.9041 143.513 47.3721 143.825 47.9361V46.1361H145.481V56.0001H143.825V54.1641C143.501 54.7401 143.015 55.2201 142.367 55.6041C141.731 55.9761 140.987 56.1621 140.135 56.1621C139.259 56.1621 138.467 55.9461 137.759 55.5141C137.051 55.0821 136.493 54.4761 136.085 53.6961C135.677 52.9161 135.473 52.0281 135.473 51.0321ZM143.825 51.0501C143.825 50.3061 143.675 49.6581 143.375 49.1061C143.075 48.5541 142.667 48.1341 142.151 47.8461C141.647 47.5461 141.089 47.3961 140.477 47.3961C139.865 47.3961 139.307 47.5401 138.803 47.8281C138.299 48.1161 137.897 48.5361 137.597 49.0881C137.297 49.6401 137.147 50.2881 137.147 51.0321C137.147 51.7881 137.297 52.4481 137.597 53.0121C137.897 53.5641 138.299 53.9901 138.803 54.2901C139.307 54.5781 139.865 54.7221 140.477 54.7221C141.089 54.7221 141.647 54.5781 142.151 54.2901C142.667 53.9901 143.075 53.5641 143.375 53.0121C143.675 52.4481 143.825 51.7941 143.825 51.0501Z" fill="#C11616"/>
<path d="M149.887 42.6801V56.0001H148.249V42.6801H149.887Z" fill="#C11616"/>
<path d="M157.575 45.9561C158.319 45.9561 158.991 46.1181 159.591 46.4421C160.191 46.7541 160.659 47.2281 160.995 47.8641C161.343 48.5001 161.517 49.2741 161.517 50.1861V56.0001H159.897V50.4201C159.897 49.4361 159.651 48.6861 159.159 48.1701C158.667 47.6421 157.995 47.3781 157.143 47.3781C156.279 47.3781 155.589 47.6481 155.073 48.1881C154.569 48.7281 154.317 49.5141 154.317 50.5461V56.0001H152.679V42.6801H154.317V47.5401C154.641 47.0361 155.085 46.6461 155.649 46.3701C156.225 46.0941 156.867 45.9561 157.575 45.9561Z" fill="#C11616"/>
<path d="M173.193 50.6901C173.193 51.0021 173.175 51.3321 173.139 51.6801H165.255C165.315 52.6521 165.645 53.4141 166.245 53.9661C166.857 54.5061 167.595 54.7761 168.459 54.7761C169.167 54.7761 169.755 54.6141 170.223 54.2901C170.703 53.9541 171.039 53.5101 171.231 52.9581H172.995C172.731 53.9061 172.203 54.6801 171.411 55.2801C170.619 55.8681 169.635 56.1621 168.459 56.1621C167.523 56.1621 166.683 55.9521 165.939 55.5321C165.207 55.1121 164.631 54.5181 164.211 53.7501C163.791 52.9701 163.581 52.0701 163.581 51.0501C163.581 50.0301 163.785 49.1361 164.193 48.3681C164.601 47.6001 165.171 47.0121 165.903 46.6041C166.647 46.1841 167.499 45.9741 168.459 45.9741C169.395 45.9741 170.223 46.1781 170.943 46.5861C171.663 46.9941 172.215 47.5581 172.599 48.2781C172.995 48.9861 173.193 49.7901 173.193 50.6901ZM171.501 50.3481C171.501 49.7241 171.363 49.1901 171.087 48.7461C170.811 48.2901 170.433 47.9481 169.953 47.7201C169.485 47.4801 168.963 47.3601 168.387 47.3601C167.559 47.3601 166.851 47.6241 166.263 48.1521C165.687 48.6801 165.357 49.4121 165.273 50.3481H171.501Z" fill="#C11616"/>
<path d="M178.847 56.1621C178.091 56.1621 177.413 56.0361 176.813 55.7841C176.213 55.5201 175.739 55.1601 175.391 54.7041C175.043 54.2361 174.851 53.7021 174.815 53.1021H176.507C176.555 53.5941 176.783 53.9961 177.191 54.3081C177.611 54.6201 178.157 54.7761 178.829 54.7761C179.453 54.7761 179.945 54.6381 180.305 54.3621C180.665 54.0861 180.845 53.7381 180.845 53.3181C180.845 52.8861 180.653 52.5681 180.269 52.3641C179.885 52.1481 179.291 51.9381 178.487 51.7341C177.755 51.5421 177.155 51.3501 176.687 51.1581C176.231 50.9541 175.835 50.6601 175.499 50.2761C175.175 49.8801 175.013 49.3641 175.013 48.7281C175.013 48.2241 175.163 47.7621 175.463 47.3421C175.763 46.9221 176.189 46.5921 176.741 46.3521C177.293 46.1001 177.923 45.9741 178.631 45.9741C179.723 45.9741 180.605 46.2501 181.277 46.8021C181.949 47.3541 182.309 48.1101 182.357 49.0701H180.719C180.683 48.5541 180.473 48.1401 180.089 47.8281C179.717 47.5161 179.213 47.3601 178.577 47.3601C177.989 47.3601 177.521 47.4861 177.173 47.7381C176.825 47.9901 176.651 48.3201 176.651 48.7281C176.651 49.0521 176.753 49.3221 176.957 49.5381C177.173 49.7421 177.437 49.9101 177.749 50.0421C178.073 50.1621 178.517 50.3001 179.081 50.4561C179.789 50.6481 180.365 50.8401 180.809 51.0321C181.253 51.2121 181.631 51.4881 181.943 51.8601C182.267 52.2321 182.435 52.7181 182.447 53.3181C182.447 53.8581 182.297 54.3441 181.997 54.7761C181.697 55.2081 181.271 55.5501 180.719 55.8021C180.179 56.0421 179.555 56.1621 178.847 56.1621Z" fill="#C11616"/>
<path d="M19.404 5.29606L16.076 22.0001H14.54L15.18 18.7361C14.3693 19.8027 13.356 20.6347 12.14 21.2321C10.9453 21.8294 9.612 22.1281 8.14 22.1281C5.964 22.1281 4.21467 21.5094 2.892 20.2721C1.59067 19.0134 0.940002 17.3174 0.940002 15.1841C0.940002 13.2854 1.34534 11.5787 2.156 10.0641C2.96667 8.52806 4.08667 7.33339 5.516 6.48006C6.96667 5.60539 8.588 5.16806 10.38 5.16806C12.108 5.16806 13.5373 5.54139 14.668 6.28806C15.7987 7.03472 16.5667 8.09072 16.972 9.45606L17.804 5.29606H19.404ZM8.46 20.6881C9.95334 20.6881 11.2867 20.3254 12.46 19.6001C13.6547 18.8747 14.5933 17.8721 15.276 16.5921C15.9587 15.2907 16.3 13.8294 16.3 12.2081C16.3 10.4374 15.7773 9.06139 14.732 8.08006C13.708 7.09872 12.2573 6.60806 10.38 6.60806C8.88667 6.60806 7.54267 6.98139 6.348 7.72806C5.17467 8.45339 4.24667 9.46672 3.564 10.7681C2.88134 12.0481 2.54 13.4881 2.54 15.0881C2.54 16.8587 3.052 18.2347 4.076 19.2161C5.12134 20.1974 6.58267 20.6881 8.46 20.6881Z" fill="#C11616"/>
</g>
</svg>
